<svg width="500" height="300" viewBox="0 0 500 300" fill="none" xmlns="http://www.w3.org/2000/svg">
<rect width="500" height="300" fill="white"/>
<line x1="52" y1="41.9894" x2="52" y2="254.011" stroke="#3020C5" stroke-width="3"/>
<line x1="51" y1="252.5" x2="341" y2="252.5" stroke="#3020C5" stroke-width="3"/>
<path d="M53.5 122.5H140L203 204L250.5 144L345 192" stroke="#F31C1C" stroke-width="2"/>
<path d="M170.508 262.527C170.859 262.574 171.156 262.598 171.398 262.598C171.531 262.598 171.652 262.594 171.762 262.586C171.871 262.578 172.008 262.566 172.172 262.551C172.312 262.535 172.488 262.52 172.699 262.504C172.91 262.488 173.156 262.461 173.438 262.422C173.336 262.5 173.258 262.59 173.203 262.691C173.148 262.793 173.105 262.891 173.074 262.984C173.043 263.094 173.02 263.207 173.004 263.324C172.996 263.395 172.992 263.539 172.992 263.758C173 263.977 173.004 264.242 173.004 264.555C173.012 264.867 173.012 265.215 173.004 265.598C173.004 265.98 172.996 266.371 172.98 266.77C172.965 267.16 172.941 267.551 172.91 267.941C172.879 268.324 172.832 268.68 172.77 269.008C172.715 269.328 172.641 269.609 172.547 269.852C172.461 270.086 172.355 270.25 172.23 270.344C171.973 270.539 171.691 270.699 171.387 270.824C171.082 270.941 170.781 271.02 170.484 271.059C170.188 271.098 169.906 271.098 169.641 271.059C169.383 271.027 169.164 270.949 168.984 270.824C168.867 270.738 168.758 270.617 168.656 270.461C168.555 270.305 168.461 270.133 168.375 269.945C168.297 269.75 168.223 269.551 168.152 269.348C168.09 269.137 168.035 268.945 167.988 268.773C167.934 268.594 167.891 268.438 167.859 268.305C167.82 268.164 167.793 268.07 167.777 268.023C167.746 267.953 167.695 267.883 167.625 267.812C167.555 267.742 167.48 267.68 167.402 267.625C167.324 267.57 167.258 267.531 167.203 267.508C167.141 267.477 167.105 267.469 167.098 267.484C167.098 267.5 167.16 267.504 167.285 267.496C167.402 267.48 167.547 267.465 167.719 267.449C167.891 267.434 168.07 267.422 168.258 267.414C168.445 267.398 168.602 267.395 168.727 267.402C168.828 267.402 168.961 267.406 169.125 267.414C169.266 267.422 169.445 267.43 169.664 267.438C169.883 267.438 170.152 267.445 170.473 267.461C170.27 267.523 170.105 267.594 169.98 267.672C169.863 267.742 169.773 267.809 169.711 267.871C169.633 267.949 169.578 268.027 169.547 268.105C169.523 268.176 169.504 268.32 169.488 268.539C169.48 268.75 169.496 268.969 169.535 269.195C169.574 269.422 169.648 269.629 169.758 269.816C169.867 270.004 170.039 270.109 170.273 270.133C170.523 270.156 170.727 270.113 170.883 270.004C171.047 269.887 171.176 269.73 171.27 269.535C171.363 269.34 171.434 269.121 171.48 268.879C171.527 268.637 171.566 268.398 171.598 268.164C171.621 268.008 171.629 267.789 171.621 267.508C171.613 267.227 171.594 266.922 171.562 266.594C171.531 266.266 171.492 265.926 171.445 265.574C171.406 265.223 171.367 264.898 171.328 264.602C171.289 264.305 171.25 264.051 171.211 263.84C171.18 263.629 171.16 263.496 171.152 263.441C171.121 263.34 171.078 263.234 171.023 263.125C170.977 263.039 170.91 262.941 170.824 262.832C170.746 262.723 170.641 262.621 170.508 262.527ZM176.93 265.75C177.133 265.75 177.344 265.789 177.562 265.867C177.781 265.938 177.992 266.031 178.195 266.148C178.398 266.258 178.582 266.379 178.746 266.512C178.918 266.637 179.059 266.758 179.168 266.875C179.363 267.086 179.496 267.371 179.566 267.73C179.645 268.082 179.66 268.445 179.613 268.82C179.566 269.188 179.457 269.535 179.285 269.863C179.113 270.191 178.875 270.434 178.57 270.59C178.352 270.699 178.137 270.785 177.926 270.848C177.715 270.91 177.512 270.957 177.316 270.988C177.121 271.02 176.938 271.035 176.766 271.035C176.594 271.035 176.445 271.031 176.32 271.023C176.086 271.008 175.84 270.926 175.582 270.777C175.332 270.629 175.094 270.445 174.867 270.227C174.648 270.008 174.461 269.77 174.305 269.512C174.148 269.246 174.055 268.996 174.023 268.762C173.977 268.441 173.969 268.105 174 267.754C174.031 267.402 174.145 267.078 174.34 266.781C174.543 266.484 174.848 266.238 175.254 266.043C175.668 265.848 176.227 265.75 176.93 265.75ZM176.543 270.297C176.629 270.312 176.746 270.293 176.895 270.238C177.043 270.176 177.188 270.078 177.328 269.945C177.477 269.812 177.605 269.645 177.715 269.441C177.832 269.23 177.902 268.977 177.926 268.68C177.949 268.391 177.949 268.125 177.926 267.883C177.91 267.641 177.875 267.43 177.82 267.25C177.766 267.062 177.703 266.91 177.633 266.793C177.562 266.676 177.488 266.594 177.41 266.547C177.277 266.477 177.117 266.422 176.93 266.383C176.742 266.336 176.582 266.344 176.449 266.406C176.387 266.438 176.309 266.504 176.215 266.605C176.121 266.707 176.027 266.836 175.934 266.992C175.84 267.141 175.754 267.312 175.676 267.508C175.605 267.703 175.555 267.906 175.523 268.117C175.492 268.328 175.484 268.555 175.5 268.797C175.523 269.039 175.574 269.27 175.652 269.488C175.73 269.699 175.84 269.883 175.98 270.039C176.129 270.188 176.316 270.273 176.543 270.297ZM180.234 265.609C180.438 265.648 180.613 265.68 180.762 265.703C180.918 265.719 181.051 265.734 181.16 265.75C181.285 265.766 181.395 265.777 181.488 265.785C181.582 265.793 181.691 265.801 181.816 265.809C182.027 265.816 182.324 265.816 182.707 265.809C182.48 265.793 182.301 265.852 182.168 265.984C182.043 266.109 181.949 266.254 181.887 266.418C181.809 266.613 181.766 266.84 181.758 267.098C181.742 267.441 181.75 267.754 181.781 268.035C181.82 268.309 181.887 268.543 181.98 268.738C182.082 268.926 182.215 269.066 182.379 269.16C182.543 269.246 182.754 269.27 183.012 269.23C183.27 269.191 183.465 269.102 183.598 268.961C183.738 268.812 183.84 268.633 183.902 268.422C183.965 268.203 184 267.957 184.008 267.684C184.023 267.41 184.035 267.125 184.043 266.828C184.043 266.531 184.039 266.32 184.031 266.195C184.031 266.062 184.027 265.977 184.02 265.938C184.012 265.898 184 265.883 183.984 265.891C183.969 265.891 183.949 265.871 183.926 265.832C183.91 265.801 183.887 265.77 183.855 265.738C183.832 265.707 183.801 265.672 183.762 265.633C183.723 265.586 183.68 265.539 183.633 265.492C183.836 265.5 184.016 265.508 184.172 265.516C184.336 265.516 184.473 265.52 184.582 265.527C184.707 265.535 184.816 265.543 184.91 265.551C184.996 265.559 185.109 265.57 185.25 265.586C185.367 265.602 185.52 265.617 185.707 265.633C185.895 265.648 186.117 265.672 186.375 265.703C186.195 265.742 186.051 265.801 185.941 265.879C185.832 265.957 185.746 266.035 185.684 266.113C185.613 266.199 185.562 266.293 185.531 266.395C185.508 266.527 185.508 266.73 185.531 267.004C185.547 267.246 185.586 267.578 185.648 268C185.711 268.422 185.809 268.977 185.941 269.664L185.016 270.215L184.828 268.656C184.602 269.039 184.359 269.336 184.102 269.547C183.852 269.75 183.617 269.898 183.398 269.992C183.141 270.102 182.891 270.164 182.648 270.18C182.328 270.18 182.051 270.16 181.816 270.121C181.59 270.074 181.395 270.016 181.23 269.945C181.066 269.875 180.934 269.797 180.832 269.711C180.738 269.617 180.668 269.523 180.621 269.43C180.512 269.234 180.453 268.984 180.445 268.68C180.438 268.367 180.449 268.059 180.48 267.754C180.512 267.441 180.547 267.156 180.586 266.898C180.625 266.641 180.637 266.465 180.621 266.371C180.605 266.301 180.582 266.223 180.551 266.137C180.52 266.066 180.48 265.988 180.434 265.902C180.387 265.809 180.32 265.711 180.234 265.609ZM186.434 265.387C186.582 265.395 186.715 265.398 186.832 265.398C186.957 265.391 187.062 265.383 187.148 265.375C187.25 265.367 187.34 265.359 187.418 265.352C187.535 265.336 187.656 265.316 187.781 265.293C187.891 265.277 188.004 265.258 188.121 265.234C188.246 265.203 188.367 265.168 188.484 265.129C188.438 265.246 188.398 265.348 188.367 265.434C188.336 265.52 188.312 265.594 188.297 265.656C188.273 265.727 188.262 265.785 188.262 265.832C188.254 265.887 188.25 265.953 188.25 266.031C188.242 266.164 188.242 266.379 188.25 266.676C188.656 266.324 188.996 266.051 189.27 265.855C189.551 265.66 189.773 265.508 189.938 265.398C190.133 265.273 190.285 265.191 190.395 265.152C190.684 265.105 190.938 265.172 191.156 265.352C191.25 265.43 191.34 265.535 191.426 265.668C191.512 265.793 191.586 265.961 191.648 266.172C191.711 266.383 191.758 266.637 191.789 266.934C191.82 267.223 191.824 267.57 191.801 267.977C191.637 267.992 191.488 268.008 191.355 268.023C191.23 268.039 191.125 268.051 191.039 268.059C190.938 268.074 190.844 268.082 190.758 268.082L190.441 268.117C190.332 268.133 190.195 268.148 190.031 268.164C189.875 268.172 189.684 268.188 189.457 268.211C189.785 267.945 189.996 267.715 190.09 267.52C190.191 267.316 190.234 267.148 190.219 267.016C190.203 266.867 190.133 266.738 190.008 266.629C189.859 266.543 189.699 266.512 189.527 266.535C189.379 266.551 189.207 266.617 189.012 266.734C188.816 266.852 188.609 267.07 188.391 267.391C188.406 267.891 188.422 268.305 188.438 268.633C188.461 268.961 188.48 269.227 188.496 269.43C188.52 269.664 188.539 269.848 188.555 269.98C188.578 270.098 188.625 270.223 188.695 270.355C188.75 270.465 188.828 270.586 188.93 270.719C189.031 270.852 189.164 270.984 189.328 271.117C188.984 271.102 188.703 271.102 188.484 271.117C188.352 271.125 188.234 271.133 188.133 271.141C188.023 271.156 187.906 271.172 187.781 271.188C187.672 271.203 187.543 271.219 187.395 271.234C187.254 271.258 187.098 271.281 186.926 271.305C186.988 271.219 187.039 271.117 187.078 271C187.117 270.891 187.148 270.785 187.172 270.684C187.203 270.566 187.227 270.445 187.242 270.32C187.25 270.211 187.254 270.047 187.254 269.828C187.262 269.609 187.258 269.363 187.242 269.09C187.234 268.809 187.223 268.52 187.207 268.223C187.191 267.918 187.172 267.633 187.148 267.367C187.125 267.102 187.098 266.871 187.066 266.676C187.043 266.473 187.016 266.332 186.984 266.254C186.945 266.16 186.898 266.066 186.844 265.973C186.797 265.887 186.738 265.797 186.668 265.703C186.598 265.602 186.52 265.496 186.434 265.387ZM197.461 264.309C197.391 264.48 197.328 264.637 197.273 264.777C197.227 264.918 197.184 265.043 197.145 265.152C197.105 265.277 197.07 265.387 197.039 265.48C197.008 265.59 196.973 265.715 196.934 265.855C196.895 265.98 196.844 266.137 196.781 266.324C196.727 266.504 196.66 266.719 196.582 266.969C196.52 266.594 196.406 266.297 196.242 266.078C196.078 265.852 195.91 265.676 195.738 265.551C195.535 265.41 195.316 265.309 195.082 265.246C194.66 265.176 194.355 265.184 194.168 265.27C193.98 265.355 193.855 265.465 193.793 265.598C193.762 265.652 193.727 265.723 193.688 265.809C193.656 265.887 193.629 265.969 193.605 266.055C193.59 266.141 193.586 266.227 193.594 266.312C193.602 266.398 193.637 266.469 193.699 266.523C193.738 266.562 193.84 266.617 194.004 266.688C194.168 266.75 194.363 266.824 194.59 266.91C194.824 266.988 195.07 267.074 195.328 267.168C195.594 267.262 195.844 267.355 196.078 267.449C196.312 267.543 196.516 267.637 196.688 267.73C196.859 267.824 196.973 267.91 197.027 267.988C197.074 268.066 197.125 268.172 197.18 268.305C197.242 268.43 197.285 268.57 197.309 268.727C197.34 268.875 197.348 269.031 197.332 269.195C197.324 269.352 197.281 269.508 197.203 269.664C197.125 269.82 197 269.965 196.828 270.098C196.664 270.23 196.441 270.34 196.16 270.426C195.832 270.527 195.516 270.555 195.211 270.508C194.906 270.461 194.625 270.391 194.367 270.297C194.117 270.203 193.898 270.113 193.711 270.027C193.523 269.934 193.391 269.895 193.312 269.91C193.227 269.926 193.129 269.969 193.02 270.039C192.91 270.109 192.805 270.184 192.703 270.262C192.609 270.332 192.527 270.398 192.457 270.461C192.387 270.516 192.352 270.535 192.352 270.52C192.352 270.504 192.363 270.457 192.387 270.379C192.418 270.301 192.449 270.207 192.48 270.098C192.52 269.98 192.555 269.855 192.586 269.723C192.625 269.582 192.652 269.449 192.668 269.324C192.684 269.223 192.703 269.098 192.727 268.949C192.742 268.816 192.762 268.656 192.785 268.469C192.816 268.273 192.852 268.039 192.891 267.766C192.93 267.969 192.984 268.145 193.055 268.293C193.133 268.441 193.207 268.57 193.277 268.68C193.363 268.805 193.445 268.91 193.523 268.996C193.641 269.105 193.777 269.207 193.934 269.301C194.098 269.395 194.262 269.477 194.426 269.547C194.59 269.609 194.746 269.648 194.895 269.664C195.043 269.68 195.168 269.664 195.27 269.617C195.371 269.57 195.457 269.484 195.527 269.359C195.605 269.234 195.66 269.098 195.691 268.949C195.723 268.801 195.734 268.66 195.727 268.527C195.719 268.387 195.684 268.273 195.621 268.188C195.574 268.133 195.465 268.062 195.293 267.977C195.129 267.891 194.93 267.797 194.695 267.695C194.469 267.594 194.227 267.488 193.969 267.379C193.719 267.27 193.48 267.16 193.254 267.051C193.035 266.934 192.852 266.824 192.703 266.723C192.562 266.613 192.484 266.516 192.469 266.43C192.453 266.305 192.441 266.168 192.434 266.02C192.426 265.863 192.434 265.711 192.457 265.562C192.488 265.406 192.543 265.258 192.621 265.117C192.707 264.977 192.832 264.859 192.996 264.766C193.105 264.703 193.25 264.656 193.43 264.625C193.609 264.594 193.809 264.578 194.027 264.578C194.246 264.57 194.473 264.578 194.707 264.602C194.941 264.617 195.164 264.641 195.375 264.672C195.594 264.695 195.789 264.727 195.961 264.766C196.141 264.805 196.277 264.84 196.371 264.871C196.48 264.91 196.598 264.914 196.723 264.883C196.832 264.859 196.949 264.809 197.074 264.73C197.199 264.652 197.328 264.512 197.461 264.309Z" fill="#F31C1C"/>
<path d="M20.5859 169.137C20.6094 168.613 20.6211 168.207 20.6211 167.918V167.484C20.6211 167.359 20.6172 167.203 20.6094 167.016C20.6016 166.859 20.5977 166.66 20.5977 166.418C20.5898 166.176 20.5781 165.887 20.5625 165.551C20.6719 165.707 20.7773 165.832 20.8789 165.926C20.9805 166.02 21.0703 166.094 21.1484 166.148C21.2422 166.211 21.3281 166.254 21.4062 166.277C21.6094 166.332 21.8867 166.355 22.2383 166.348C22.582 166.332 22.957 166.297 23.3633 166.242C23.7617 166.188 24.168 166.121 24.582 166.043C24.9961 165.965 25.3711 165.887 25.707 165.809C26.043 165.723 26.3203 165.648 26.5391 165.586C26.75 165.516 26.8555 165.465 26.8555 165.434C26.8555 165.402 26.7422 165.344 26.5156 165.258C26.2891 165.164 26.0039 165.059 25.6602 164.941C25.3086 164.824 24.9297 164.703 24.5234 164.578C24.1094 164.453 23.7188 164.34 23.3516 164.238C22.9766 164.129 22.6562 164.039 22.3906 163.969C22.1172 163.898 21.9492 163.863 21.8867 163.863C21.8008 163.871 21.7109 163.898 21.6172 163.945C21.5312 163.984 21.4336 164.055 21.3242 164.156C21.207 164.25 21.0742 164.383 20.9258 164.555C20.918 164.312 20.9102 164.105 20.9023 163.934C20.8945 163.754 20.8906 163.602 20.8906 163.477V163.113V161.238C21.0234 161.434 21.1523 161.602 21.2773 161.742C21.4023 161.875 21.5195 161.984 21.6289 162.07C21.7539 162.172 21.8711 162.258 21.9805 162.328C22.1445 162.406 22.5 162.535 23.0469 162.715C23.2812 162.793 23.5664 162.883 23.9023 162.984C24.2383 163.086 24.6406 163.207 25.1094 163.348C25.5781 163.488 26.1211 163.645 26.7383 163.816C27.3477 163.988 28.043 164.184 28.8242 164.402L29.0352 166.031C28.4258 166.227 27.8711 166.398 27.3711 166.547C26.8633 166.688 26.4297 166.812 26.0703 166.922C25.6484 167.047 25.2695 167.152 24.9336 167.238C24.5273 167.355 24.1172 167.457 23.7031 167.543C23.2812 167.621 22.9023 167.691 22.5664 167.754C22.2227 167.809 21.9375 167.859 21.7109 167.906C21.4844 167.953 21.3516 168.004 21.3125 168.059C21.2734 168.105 21.2227 168.176 21.1602 168.27C21.1055 168.355 21.0352 168.465 20.9492 168.598C20.8555 168.738 20.7344 168.918 20.5859 169.137ZM23.7617 162.082L23.7852 159.926C24.2617 160.051 24.668 160.145 25.0039 160.207C25.3398 160.262 25.6211 160.297 25.8477 160.312C26.1055 160.344 26.3242 160.352 26.5039 160.336C26.668 160.312 26.8438 160.273 27.0312 160.219C27.1875 160.172 27.3672 160.102 27.5703 160.008C27.7734 159.914 27.9766 159.789 28.1797 159.633C28.1484 159.727 28.125 159.828 28.1094 159.938C28.0938 160.047 28.082 160.148 28.0742 160.242C28.0664 160.352 28.0664 160.461 28.0742 160.57C28.082 160.68 28.0938 160.801 28.1094 160.934C28.125 161.043 28.1445 161.176 28.168 161.332C28.1914 161.488 28.2227 161.652 28.2617 161.824C27.9102 161.707 27.6055 161.617 27.3477 161.555C27.0898 161.484 26.875 161.434 26.7031 161.402C26.5 161.371 26.3359 161.352 26.2109 161.344C26.0547 161.344 25.8789 161.344 25.6836 161.344C25.4805 161.344 25.2852 161.344 25.0977 161.344C24.9102 161.344 24.7461 161.348 24.6055 161.355C24.457 161.363 24.3633 161.379 24.3242 161.402L24.207 161.52C24.168 161.566 24.1133 161.637 24.043 161.73C23.9648 161.816 23.8711 161.934 23.7617 162.082ZM21.957 161.25C21.8711 161.086 21.8477 160.922 21.8867 160.758C21.9258 160.586 22 160.453 22.1094 160.359C22.2188 160.266 22.3477 160.234 22.4961 160.266C22.6445 160.289 22.7891 160.414 22.9297 160.641C23.0625 160.867 23.1094 161.066 23.0703 161.238C23.0312 161.41 22.9492 161.531 22.8242 161.602C22.6992 161.672 22.5547 161.684 22.3906 161.637C22.2188 161.59 22.0742 161.461 21.957 161.25ZM22.3086 154.043C22.4805 154.113 22.6367 154.176 22.7773 154.23C22.918 154.277 23.043 154.32 23.1523 154.359C23.2773 154.398 23.3867 154.434 23.4805 154.465C23.5898 154.496 23.7148 154.531 23.8555 154.57C23.9805 154.609 24.1367 154.66 24.3242 154.723C24.5039 154.777 24.7188 154.844 24.9688 154.922C24.5938 154.984 24.2969 155.098 24.0781 155.262C23.8516 155.426 23.6758 155.594 23.5508 155.766C23.4102 155.969 23.3086 156.188 23.2461 156.422C23.1758 156.844 23.1836 157.148 23.2695 157.336C23.3555 157.523 23.4648 157.648 23.5977 157.711C23.6523 157.742 23.7227 157.777 23.8086 157.816C23.8867 157.848 23.9688 157.875 24.0547 157.898C24.1406 157.914 24.2266 157.918 24.3125 157.91C24.3984 157.902 24.4688 157.867 24.5234 157.805C24.5625 157.766 24.6172 157.664 24.6875 157.5C24.75 157.336 24.8242 157.141 24.9102 156.914C24.9883 156.68 25.0742 156.434 25.168 156.176C25.2617 155.91 25.3555 155.66 25.4492 155.426C25.543 155.191 25.6367 154.988 25.7305 154.816C25.8242 154.645 25.9102 154.531 25.9883 154.477C26.0664 154.43 26.1719 154.379 26.3047 154.324C26.4297 154.262 26.5703 154.219 26.7266 154.195C26.875 154.164 27.0312 154.156 27.1953 154.172C27.3516 154.18 27.5078 154.223 27.6641 154.301C27.8203 154.379 27.9648 154.504 28.0977 154.676C28.2305 154.84 28.3398 155.062 28.4258 155.344C28.5273 155.672 28.5547 155.988 28.5078 156.293C28.4609 156.598 28.3906 156.879 28.2969 157.137C28.2031 157.387 28.1133 157.605 28.0273 157.793C27.9336 157.98 27.8945 158.113 27.9102 158.191C27.9258 158.277 27.9688 158.375 28.0391 158.484C28.1094 158.594 28.1836 158.699 28.2617 158.801C28.332 158.895 28.3984 158.977 28.4609 159.047C28.5156 159.117 28.5352 159.152 28.5195 159.152C28.5039 159.152 28.457 159.141 28.3789 159.117C28.3008 159.086 28.207 159.055 28.0977 159.023C27.9805 158.984 27.8555 158.949 27.7227 158.918C27.582 158.879 27.4492 158.852 27.3242 158.836C27.2227 158.82 27.0977 158.801 26.9492 158.777C26.8164 158.762 26.6562 158.742 26.4688 158.719C26.2734 158.688 26.0391 158.652 25.7656 158.613C25.9688 158.574 26.1445 158.52 26.293 158.449C26.4414 158.371 26.5703 158.297 26.6797 158.227C26.8047 158.141 26.9102 158.059 26.9961 157.98C27.1055 157.863 27.207 157.727 27.3008 157.57C27.3945 157.406 27.4766 157.242 27.5469 157.078C27.6094 156.914 27.6484 156.758 27.6641 156.609C27.6797 156.461 27.6641 156.336 27.6172 156.234C27.5703 156.133 27.4844 156.047 27.3594 155.977C27.2344 155.898 27.0977 155.844 26.9492 155.812C26.8008 155.781 26.6602 155.77 26.5273 155.777C26.3867 155.785 26.2734 155.82 26.1875 155.883C26.1328 155.93 26.0625 156.039 25.9766 156.211C25.8906 156.375 25.7969 156.574 25.6953 156.809C25.5938 157.035 25.4883 157.277 25.3789 157.535C25.2695 157.785 25.1602 158.023 25.0508 158.25C24.9336 158.469 24.8242 158.652 24.7227 158.801C24.6133 158.941 24.5156 159.02 24.4297 159.035C24.3047 159.051 24.168 159.062 24.0195 159.07C23.8633 159.078 23.7109 159.07 23.5625 159.047C23.4062 159.016 23.2578 158.961 23.1172 158.883C22.9766 158.797 22.8594 158.672 22.7656 158.508C22.7031 158.398 22.6562 158.254 22.625 158.074C22.5938 157.895 22.5781 157.695 22.5781 157.477C22.5703 157.258 22.5781 157.031 22.6016 156.797C22.6172 156.562 22.6406 156.34 22.6719 156.129C22.6953 155.91 22.7266 155.715 22.7656 155.543C22.8047 155.363 22.8398 155.227 22.8711 155.133C22.9102 155.023 22.9141 154.906 22.8828 154.781C22.8594 154.672 22.8086 154.555 22.7305 154.43C22.6523 154.305 22.5117 154.176 22.3086 154.043ZM23.7617 153.621L23.7852 151.465C24.2617 151.59 24.668 151.684 25.0039 151.746C25.3398 151.801 25.6211 151.836 25.8477 151.852C26.1055 151.883 26.3242 151.891 26.5039 151.875C26.668 151.852 26.8438 151.812 27.0312 151.758C27.1875 151.711 27.3672 151.641 27.5703 151.547C27.7734 151.453 27.9766 151.328 28.1797 151.172C28.1484 151.266 28.125 151.367 28.1094 151.477C28.0938 151.586 28.082 151.688 28.0742 151.781C28.0664 151.891 28.0664 152 28.0742 152.109C28.082 152.219 28.0938 152.34 28.1094 152.473C28.125 152.582 28.1445 152.715 28.168 152.871C28.1914 153.027 28.2227 153.191 28.2617 153.363C27.9102 153.246 27.6055 153.156 27.3477 153.094C27.0898 153.023 26.875 152.973 26.7031 152.941C26.5 152.91 26.3359 152.891 26.2109 152.883C26.0547 152.883 25.8789 152.883 25.6836 152.883C25.4805 152.883 25.2852 152.883 25.0977 152.883C24.9102 152.883 24.7461 152.887 24.6055 152.895C24.457 152.902 24.3633 152.918 24.3242 152.941L24.207 153.059C24.168 153.105 24.1133 153.176 24.043 153.27C23.9648 153.355 23.8711 153.473 23.7617 153.621ZM21.957 152.789C21.8711 152.625 21.8477 152.461 21.8867 152.297C21.9258 152.125 22 151.992 22.1094 151.898C22.2188 151.805 22.3477 151.773 22.4961 151.805C22.6445 151.828 22.7891 151.953 22.9297 152.18C23.0625 152.406 23.1094 152.605 23.0703 152.777C23.0312 152.949 22.9492 153.07 22.8242 153.141C22.6992 153.211 22.5547 153.223 22.3906 153.176C22.2188 153.129 22.0742 153 21.957 152.789ZM21.6172 150.891C21.6406 150.656 21.6602 150.461 21.6758 150.305C21.6914 150.141 21.7031 150.008 21.7109 149.906C21.7188 149.789 21.7227 149.695 21.7227 149.625C21.7305 149.555 21.7305 149.461 21.7227 149.344C21.7148 149.242 21.707 149.109 21.6992 148.945C21.6836 148.781 21.6602 148.574 21.6289 148.324C21.707 148.379 21.7773 148.422 21.8398 148.453C21.8945 148.484 21.9453 148.512 21.9922 148.535L22.1328 148.605C22.1797 148.621 22.2266 148.637 22.2734 148.652C22.3125 148.668 22.3594 148.684 22.4141 148.699C22.4688 148.707 22.5273 148.715 22.5898 148.723V146.918L23.5391 147.082L23.4453 148.734C23.8438 148.773 24.1523 148.801 24.3711 148.816C24.5898 148.832 24.75 148.848 24.8516 148.863L25.0625 148.887C25.3594 148.91 25.6836 148.934 26.0352 148.957C26.3789 148.98 26.6992 148.988 26.9961 148.98C27.293 148.973 27.543 148.945 27.7461 148.898C27.9414 148.852 28.0391 148.77 28.0391 148.652C28.0391 148.535 28.0078 148.426 27.9453 148.324C27.8828 148.223 27.8086 148.137 27.7227 148.066C27.6367 147.988 27.5508 147.93 27.4648 147.891C27.3711 147.852 27.3008 147.832 27.2539 147.832C27.207 147.832 27.1523 147.844 27.0898 147.867C26.9727 147.906 26.8242 147.977 26.6445 148.078C26.6992 147.852 26.7539 147.652 26.8086 147.48C26.8398 147.395 26.8711 147.316 26.9023 147.246C26.9336 147.168 26.9688 147.078 27.0078 146.977C27.0469 146.891 27.0938 146.781 27.1484 146.648C27.2031 146.516 27.2695 146.359 27.3477 146.18C27.3789 146.352 27.4297 146.477 27.5 146.555C27.5312 146.602 27.5664 146.637 27.6055 146.66C27.6914 146.715 27.8086 146.777 27.957 146.848C28.0977 146.918 28.2383 147.023 28.3789 147.164C28.5195 147.305 28.6445 147.496 28.7539 147.738C28.8633 147.973 28.9258 148.289 28.9414 148.688C28.957 149.102 28.8867 149.418 28.7305 149.637C28.5742 149.848 28.3945 150.004 28.1914 150.105C27.9805 150.199 27.7734 150.254 27.5703 150.27C27.3672 150.285 27.2305 150.297 27.1602 150.305C27.0898 150.312 26.9141 150.312 26.6328 150.305C26.3516 150.297 26.043 150.285 25.707 150.27C25.3633 150.254 25.0352 150.238 24.7227 150.223C24.4023 150.207 24.168 150.199 24.0195 150.199C23.9414 150.199 23.8594 150.195 23.7734 150.188C23.7031 150.188 23.6289 150.188 23.5508 150.188C23.4648 150.18 23.3828 150.176 23.3047 150.176L23.293 151.875L22.625 151.945L22.6719 150.234C22.5859 150.25 22.5078 150.27 22.4375 150.293C22.3594 150.309 22.2969 150.324 22.25 150.34C22.1953 150.363 22.1484 150.387 22.1094 150.41C22.0703 150.441 22.0273 150.477 21.9805 150.516C21.9414 150.555 21.8906 150.605 21.8281 150.668C21.7656 150.73 21.6953 150.805 21.6172 150.891ZM27.1133 143.613C27.1133 143.395 27.0898 143.191 27.043 143.004C27.0039 142.848 26.9414 142.699 26.8555 142.559C26.7617 142.41 26.625 142.312 26.4453 142.266C26.4766 142.109 26.5039 141.977 26.5273 141.867C26.543 141.758 26.5586 141.664 26.5742 141.586C26.5977 141.5 26.6133 141.426 26.6211 141.363C26.6367 141.301 26.6523 141.227 26.668 141.141C26.6836 141.062 26.7031 140.969 26.7266 140.859C26.7422 140.742 26.7656 140.605 26.7969 140.449C26.7812 140.566 26.793 140.688 26.832 140.812C26.8711 140.93 26.9141 141.043 26.9609 141.152C27.0156 141.277 27.082 141.395 27.1602 141.504C27.207 141.574 27.2773 141.656 27.3711 141.75C27.4648 141.836 27.5547 141.961 27.6406 142.125C27.7266 142.289 27.8008 142.508 27.8633 142.781C27.918 143.047 27.9375 143.391 27.9219 143.812C27.9062 144.32 27.8164 144.746 27.6523 145.09C27.4805 145.434 27.2734 145.711 27.0312 145.922C26.7812 146.133 26.5117 146.285 26.2227 146.379C25.9336 146.473 25.6641 146.523 25.4141 146.531C25.1641 146.539 24.9023 146.465 24.6289 146.309C24.3555 146.152 24.1055 145.934 23.8789 145.652C23.6523 145.363 23.4688 145.016 23.3281 144.609C23.1797 144.203 23.1055 143.758 23.1055 143.273C23.1055 142.992 23.1406 142.734 23.2109 142.5C23.2734 142.258 23.3594 142.039 23.4688 141.844C23.5781 141.641 23.7031 141.465 23.8438 141.316C23.9766 141.168 24.1133 141.043 24.2539 140.941C24.4023 140.84 24.5586 140.754 24.7227 140.684C24.8633 140.621 25.0234 140.57 25.2031 140.531C25.3828 140.492 25.5664 140.48 25.7539 140.496C25.7695 141.09 25.7812 141.57 25.7891 141.938C25.7969 142.297 25.8008 142.578 25.8008 142.781V143.309V143.707C25.8008 143.848 25.8047 144.031 25.8125 144.258C25.8203 144.484 25.832 144.762 25.8477 145.09C26.1602 145.051 26.4023 144.953 26.5742 144.797C26.7383 144.633 26.8633 144.461 26.9492 144.281C27.043 144.078 27.0977 143.855 27.1133 143.613ZM25.0039 144.668C25.0195 144.418 25.0312 144.211 25.0391 144.047C25.0469 143.875 25.0547 143.734 25.0625 143.625C25.0703 143.508 25.0742 143.414 25.0742 143.344V143.051C25.0742 142.855 25.0625 142.492 25.0391 141.961C24.6953 141.984 24.4336 142.059 24.2539 142.184C24.0742 142.301 23.9414 142.426 23.8555 142.559C23.7617 142.715 23.707 142.887 23.6914 143.074C23.6992 143.582 23.8047 143.961 24.0078 144.211C24.2109 144.453 24.543 144.605 25.0039 144.668ZM22.3086 134.859C22.4805 134.93 22.6367 134.992 22.7773 135.047C22.918 135.094 23.043 135.137 23.1523 135.176C23.2773 135.215 23.3867 135.25 23.4805 135.281C23.5898 135.312 23.7148 135.348 23.8555 135.387C23.9805 135.426 24.1367 135.477 24.3242 135.539C24.5039 135.594 24.7188 135.66 24.9688 135.738C24.5938 135.801 24.2969 135.914 24.0781 136.078C23.8516 136.242 23.6758 136.41 23.5508 136.582C23.4102 136.785 23.3086 137.004 23.2461 137.238C23.1758 137.66 23.1836 137.965 23.2695 138.152C23.3555 138.34 23.4648 138.465 23.5977 138.527C23.6523 138.559 23.7227 138.594 23.8086 138.633C23.8867 138.664 23.9688 138.691 24.0547 138.715C24.1406 138.73 24.2266 138.734 24.3125 138.727C24.3984 138.719 24.4688 138.684 24.5234 138.621C24.5625 138.582 24.6172 138.48 24.6875 138.316C24.75 138.152 24.8242 137.957 24.9102 137.73C24.9883 137.496 25.0742 137.25 25.168 136.992C25.2617 136.727 25.3555 136.477 25.4492 136.242C25.543 136.008 25.6367 135.805 25.7305 135.633C25.8242 135.461 25.9102 135.348 25.9883 135.293C26.0664 135.246 26.1719 135.195 26.3047 135.141C26.4297 135.078 26.5703 135.035 26.7266 135.012C26.875 134.98 27.0312 134.973 27.1953 134.988C27.3516 134.996 27.5078 135.039 27.6641 135.117C27.8203 135.195 27.9648 135.32 28.0977 135.492C28.2305 135.656 28.3398 135.879 28.4258 136.16C28.5273 136.488 28.5547 136.805 28.5078 137.109C28.4609 137.414 28.3906 137.695 28.2969 137.953C28.2031 138.203 28.1133 138.422 28.0273 138.609C27.9336 138.797 27.8945 138.93 27.9102 139.008C27.9258 139.094 27.9688 139.191 28.0391 139.301C28.1094 139.41 28.1836 139.516 28.2617 139.617C28.332 139.711 28.3984 139.793 28.4609 139.863C28.5156 139.934 28.5352 139.969 28.5195 139.969C28.5039 139.969 28.457 139.957 28.3789 139.934C28.3008 139.902 28.207 139.871 28.0977 139.84C27.9805 139.801 27.8555 139.766 27.7227 139.734C27.582 139.695 27.4492 139.668 27.3242 139.652C27.2227 139.637 27.0977 139.617 26.9492 139.594C26.8164 139.578 26.6562 139.559 26.4688 139.535C26.2734 139.504 26.0391 139.469 25.7656 139.43C25.9688 139.391 26.1445 139.336 26.293 139.266C26.4414 139.188 26.5703 139.113 26.6797 139.043C26.8047 138.957 26.9102 138.875 26.9961 138.797C27.1055 138.68 27.207 138.543 27.3008 138.387C27.3945 138.223 27.4766 138.059 27.5469 137.895C27.6094 137.73 27.6484 137.574 27.6641 137.426C27.6797 137.277 27.6641 137.152 27.6172 137.051C27.5703 136.949 27.4844 136.863 27.3594 136.793C27.2344 136.715 27.0977 136.66 26.9492 136.629C26.8008 136.598 26.6602 136.586 26.5273 136.594C26.3867 136.602 26.2734 136.637 26.1875 136.699C26.1328 136.746 26.0625 136.855 25.9766 137.027C25.8906 137.191 25.7969 137.391 25.6953 137.625C25.5938 137.852 25.4883 138.094 25.3789 138.352C25.2695 138.602 25.1602 138.84 25.0508 139.066C24.9336 139.285 24.8242 139.469 24.7227 139.617C24.6133 139.758 24.5156 139.836 24.4297 139.852C24.3047 139.867 24.168 139.879 24.0195 139.887C23.8633 139.895 23.7109 139.887 23.5625 139.863C23.4062 139.832 23.2578 139.777 23.1172 139.699C22.9766 139.613 22.8594 139.488 22.7656 139.324C22.7031 139.215 22.6562 139.07 22.625 138.891C22.5938 138.711 22.5781 138.512 22.5781 138.293C22.5703 138.074 22.5781 137.848 22.6016 137.613C22.6172 137.379 22.6406 137.156 22.6719 136.945C22.6953 136.727 22.7266 136.531 22.7656 136.359C22.8047 136.18 22.8398 136.043 22.8711 135.949C22.9102 135.84 22.9141 135.723 22.8828 135.598C22.8594 135.488 22.8086 135.371 22.7305 135.246C22.6523 135.121 22.5117 134.992 22.3086 134.859Z" fill="#F31C1C"/>
</svg>
