<svg height="200" width="200" xmlns="http://www.w3.org/2000/svg" viewBox="0 0 205.041 205.041">
  <g stroke-width="0"/>
  <g stroke-linecap="round" stroke-linejoin="round"/>
  <path d="M198.969 60.373a7.5 7.5 0 0 0-10.604-.159l-29.809 28.927c-7.275-9.046-14.93-17.727-22.123-25.378l14.42-6.413a7.5 7.5 0 0 0 4.028-4.368l15.097-42.995a7.5 7.5 0 0 0-4.592-9.562 7.504 7.504 0 0 0-9.561 4.592L141.8 44.959l-1.46.649c.036-.567.06-1.141.06-1.723 0-16.894-16.546-36.531-37.877-36.531-21.337 0-37.887 19.638-37.887 36.531q.002.87.059 1.719l-1.451-.646L49.218 5.017a7.501 7.501 0 0 0-14.153 4.97l15.097 42.995a7.5 7.5 0 0 0 4.028 4.368l14.419 6.413c-7.194 7.652-14.849 16.333-22.124 25.379L16.677 60.214a7.5 7.5 0 0 0-10.604.159 7.5 7.5 0 0 0 .159 10.605l31.042 30.124c-19.331 26.319-32.612 53.26-20.392 65.483 3.287 3.286 7.607 4.699 12.606 4.699 6.113 0 13.244-2.12 20.744-5.507l10.162 33.914a7.503 7.503 0 0 0 9.337 5.032 7.5 7.5 0 0 0 5.032-9.337L63.75 158.634c4.486-2.674 8.969-5.608 13.321-8.643 4.741 9.245 14.365 15.589 25.449 15.589s20.707-6.344 25.449-15.588c4.353 3.035 8.835 5.969 13.321 8.643l-11.013 36.751a7.5 7.5 0 0 0 14.369 4.305l10.162-33.914c7.5 3.387 14.631 5.506 20.744 5.506 4.999 0 9.32-1.414 12.607-4.7 12.219-12.222-1.063-39.162-20.394-65.481l31.042-30.124a7.5 7.5 0 0 0 .162-10.605m-96.447-38.019c12.32 0 22.877 11.839 22.877 21.531 0 11.708-19.057 12.301-22.877 12.301-3.822 0-22.887-.593-22.887-12.301.001-9.691 10.561-21.531 22.887-21.531M27.494 155.987c-.829-1.074-1.436-9.219 10.757-29.452 4.085-6.779 9.063-14.014 14.767-21.498q.1-.125.195-.252c6.14-8.04 13.119-16.363 20.718-24.714v53.72c-29.312 21.48-44.272 23.844-46.437 22.196m75.026-5.407c-7.493 0-13.59-6.096-13.59-13.59V69.757c4.114.935 8.665 1.429 13.592 1.429 4.926 0 9.475-.495 13.588-1.429v67.233c0 7.494-6.096 13.59-13.59 13.59m75.044 5.388c-2.183 1.666-17.145-.7-46.454-22.175V80.071c7.6 8.352 14.58 16.676 20.72 24.716q.094.125.192.248c5.704 7.485 10.683 14.721 14.769 21.501 12.192 20.233 11.585 28.377 10.773 29.432"/>
</svg>
